<mxfile host="Electron" modified="2023-04-18T18:17:24.873Z" agent="Mozilla/5.0 (Windows NT 10.0; Win64; x64) AppleWebKit/537.36 (KHTML, like Gecko) draw.io/21.1.2 Chrome/106.0.5249.199 Electron/21.4.3 Safari/537.36" etag="QZYt04V2jTyjZ8XNIZ4-" version="21.1.2" type="device">
  <diagram name="Page-1" id="-ZEDyg4aVr5IU9MFN35L">
    <mxGraphModel dx="1554" dy="678" grid="1" gridSize="10" guides="1" tooltips="1" connect="1" arrows="1" fold="1" page="1" pageScale="1" pageWidth="850" pageHeight="1100" math="0" shadow="0">
      <root>
        <mxCell id="0" />
        <mxCell id="1" parent="0" />
        <mxCell id="gySkxmkF_8zIahGBaPJ1-2" value="Personnel" style="shape=umlFrame;whiteSpace=wrap;html=1;pointerEvents=0;recursiveResize=0;container=1;collapsible=0;width=160;" parent="1" vertex="1">
          <mxGeometry x="30" y="70" width="340" height="180" as="geometry" />
        </mxCell>
        <mxCell id="gySkxmkF_8zIahGBaPJ1-3" value="+ Hire()" style="text;html=1;align=left;verticalAlign=middle;resizable=0;points=[];autosize=1;strokeColor=none;fillColor=none;" parent="gySkxmkF_8zIahGBaPJ1-2" vertex="1">
          <mxGeometry x="20" y="50" width="60" height="30" as="geometry" />
        </mxCell>
        <mxCell id="gySkxmkF_8zIahGBaPJ1-4" value="+ Vacation()" style="text;html=1;align=left;verticalAlign=middle;resizable=0;points=[];autosize=1;strokeColor=none;fillColor=none;" parent="gySkxmkF_8zIahGBaPJ1-2" vertex="1">
          <mxGeometry x="20" y="70" width="90" height="30" as="geometry" />
        </mxCell>
        <mxCell id="gySkxmkF_8zIahGBaPJ1-5" value="+ Specialist()" style="text;html=1;align=left;verticalAlign=middle;resizable=0;points=[];autosize=1;strokeColor=none;fillColor=none;" parent="gySkxmkF_8zIahGBaPJ1-2" vertex="1">
          <mxGeometry x="20" y="90" width="90" height="30" as="geometry" />
        </mxCell>
        <mxCell id="gySkxmkF_8zIahGBaPJ1-6" value="+ MyProfile()" style="text;html=1;align=left;verticalAlign=middle;resizable=0;points=[];autosize=1;strokeColor=none;fillColor=none;" parent="gySkxmkF_8zIahGBaPJ1-2" vertex="1">
          <mxGeometry x="20" y="110" width="90" height="30" as="geometry" />
        </mxCell>
        <mxCell id="gySkxmkF_8zIahGBaPJ1-7" value="+ LogOut()" style="text;html=1;align=left;verticalAlign=middle;resizable=0;points=[];autosize=1;strokeColor=none;fillColor=none;" parent="gySkxmkF_8zIahGBaPJ1-2" vertex="1">
          <mxGeometry x="20" y="130" width="80" height="30" as="geometry" />
        </mxCell>
        <mxCell id="gySkxmkF_8zIahGBaPJ1-8" value="Vehicles" style="shape=umlFrame;whiteSpace=wrap;html=1;pointerEvents=0;recursiveResize=0;container=1;collapsible=0;width=160;" parent="1" vertex="1">
          <mxGeometry x="490" y="70" width="340" height="180" as="geometry" />
        </mxCell>
        <mxCell id="gySkxmkF_8zIahGBaPJ1-9" value="+ Assign()" style="text;html=1;align=left;verticalAlign=middle;resizable=0;points=[];autosize=1;strokeColor=none;fillColor=none;" parent="gySkxmkF_8zIahGBaPJ1-8" vertex="1">
          <mxGeometry x="20" y="50" width="80" height="30" as="geometry" />
        </mxCell>
        <mxCell id="gySkxmkF_8zIahGBaPJ1-10" value="+ Maintain()" style="text;html=1;align=left;verticalAlign=middle;resizable=0;points=[];autosize=1;strokeColor=none;fillColor=none;" parent="gySkxmkF_8zIahGBaPJ1-8" vertex="1">
          <mxGeometry x="20" y="70" width="90" height="30" as="geometry" />
        </mxCell>
        <mxCell id="gySkxmkF_8zIahGBaPJ1-11" value="+ Buy()" style="text;html=1;align=left;verticalAlign=middle;resizable=0;points=[];autosize=1;strokeColor=none;fillColor=none;" parent="gySkxmkF_8zIahGBaPJ1-8" vertex="1">
          <mxGeometry x="20" y="90" width="60" height="30" as="geometry" />
        </mxCell>
        <mxCell id="gySkxmkF_8zIahGBaPJ1-12" value="+ Sell()" style="text;html=1;align=left;verticalAlign=middle;resizable=0;points=[];autosize=1;strokeColor=none;fillColor=none;" parent="gySkxmkF_8zIahGBaPJ1-8" vertex="1">
          <mxGeometry x="20" y="110" width="60" height="30" as="geometry" />
        </mxCell>
        <mxCell id="gySkxmkF_8zIahGBaPJ1-13" value="+ Rent" style="text;html=1;align=left;verticalAlign=middle;resizable=0;points=[];autosize=1;strokeColor=none;fillColor=none;" parent="gySkxmkF_8zIahGBaPJ1-8" vertex="1">
          <mxGeometry x="20" y="130" width="60" height="30" as="geometry" />
        </mxCell>
        <mxCell id="gySkxmkF_8zIahGBaPJ1-14" value="" style="endArrow=open;dashed=1;html=1;rounded=0;exitX=1.006;exitY=0.496;exitDx=0;exitDy=0;exitPerimeter=0;entryX=-0.006;entryY=0.506;entryDx=0;entryDy=0;entryPerimeter=0;endFill=0;" parent="1" source="gySkxmkF_8zIahGBaPJ1-2" target="gySkxmkF_8zIahGBaPJ1-8" edge="1">
          <mxGeometry width="50" height="50" relative="1" as="geometry">
            <mxPoint x="480" y="470" as="sourcePoint" />
            <mxPoint x="530" y="420" as="targetPoint" />
          </mxGeometry>
        </mxCell>
        <mxCell id="gySkxmkF_8zIahGBaPJ1-15" value="Mechanics" style="shape=umlFrame;whiteSpace=wrap;html=1;pointerEvents=0;recursiveResize=0;container=1;collapsible=0;width=160;" parent="1" vertex="1">
          <mxGeometry x="30" y="330" width="340" height="180" as="geometry" />
        </mxCell>
        <mxCell id="gySkxmkF_8zIahGBaPJ1-16" value="+ Diagnosis()" style="text;html=1;align=left;verticalAlign=middle;resizable=0;points=[];autosize=1;strokeColor=none;fillColor=none;" parent="gySkxmkF_8zIahGBaPJ1-15" vertex="1">
          <mxGeometry x="20" y="50" width="90" height="30" as="geometry" />
        </mxCell>
        <mxCell id="gySkxmkF_8zIahGBaPJ1-17" value="+ HirePartner()" style="text;html=1;align=left;verticalAlign=middle;resizable=0;points=[];autosize=1;strokeColor=none;fillColor=none;" parent="gySkxmkF_8zIahGBaPJ1-15" vertex="1">
          <mxGeometry x="20" y="70" width="100" height="30" as="geometry" />
        </mxCell>
        <mxCell id="gySkxmkF_8zIahGBaPJ1-18" value="+ Specialist()" style="text;html=1;align=left;verticalAlign=middle;resizable=0;points=[];autosize=1;strokeColor=none;fillColor=none;" parent="gySkxmkF_8zIahGBaPJ1-15" vertex="1">
          <mxGeometry x="20" y="90" width="90" height="30" as="geometry" />
        </mxCell>
        <mxCell id="gySkxmkF_8zIahGBaPJ1-19" value="+ OrderParts()" style="text;html=1;align=left;verticalAlign=middle;resizable=0;points=[];autosize=1;strokeColor=none;fillColor=none;" parent="gySkxmkF_8zIahGBaPJ1-15" vertex="1">
          <mxGeometry x="20" y="110" width="100" height="30" as="geometry" />
        </mxCell>
        <mxCell id="gySkxmkF_8zIahGBaPJ1-21" value="" style="endArrow=open;dashed=1;html=1;rounded=0;exitX=0.487;exitY=1.01;exitDx=0;exitDy=0;exitPerimeter=0;endFill=0;entryX=0.487;entryY=-0.013;entryDx=0;entryDy=0;entryPerimeter=0;" parent="1" source="gySkxmkF_8zIahGBaPJ1-2" target="gySkxmkF_8zIahGBaPJ1-15" edge="1">
          <mxGeometry width="50" height="50" relative="1" as="geometry">
            <mxPoint x="480" y="470" as="sourcePoint" />
            <mxPoint x="280" y="270" as="targetPoint" />
          </mxGeometry>
        </mxCell>
        <mxCell id="gySkxmkF_8zIahGBaPJ1-22" value="Maintainance" style="shape=umlFrame;whiteSpace=wrap;html=1;pointerEvents=0;recursiveResize=0;container=1;collapsible=0;width=160;" parent="1" vertex="1">
          <mxGeometry x="490" y="330" width="340" height="180" as="geometry" />
        </mxCell>
        <mxCell id="gySkxmkF_8zIahGBaPJ1-23" value="+ Assign()" style="text;html=1;align=left;verticalAlign=middle;resizable=0;points=[];autosize=1;strokeColor=none;fillColor=none;" parent="gySkxmkF_8zIahGBaPJ1-22" vertex="1">
          <mxGeometry x="20" y="50" width="80" height="30" as="geometry" />
        </mxCell>
        <mxCell id="gySkxmkF_8zIahGBaPJ1-24" value="+ Start()" style="text;html=1;align=left;verticalAlign=middle;resizable=0;points=[];autosize=1;strokeColor=none;fillColor=none;" parent="gySkxmkF_8zIahGBaPJ1-22" vertex="1">
          <mxGeometry x="20" y="70" width="70" height="30" as="geometry" />
        </mxCell>
        <mxCell id="gySkxmkF_8zIahGBaPJ1-25" value="+ Finish()" style="text;html=1;align=left;verticalAlign=middle;resizable=0;points=[];autosize=1;strokeColor=none;fillColor=none;" parent="gySkxmkF_8zIahGBaPJ1-22" vertex="1">
          <mxGeometry x="20" y="90" width="70" height="30" as="geometry" />
        </mxCell>
        <mxCell id="gySkxmkF_8zIahGBaPJ1-26" value="+ Parts()" style="text;html=1;align=left;verticalAlign=middle;resizable=0;points=[];autosize=1;strokeColor=none;fillColor=none;" parent="gySkxmkF_8zIahGBaPJ1-22" vertex="1">
          <mxGeometry x="20" y="110" width="70" height="30" as="geometry" />
        </mxCell>
        <mxCell id="gySkxmkF_8zIahGBaPJ1-28" value="" style="endArrow=open;dashed=1;html=1;rounded=0;exitX=1.006;exitY=0.524;exitDx=0;exitDy=0;exitPerimeter=0;entryX=-0.003;entryY=0.529;entryDx=0;entryDy=0;entryPerimeter=0;endFill=0;" parent="1" source="gySkxmkF_8zIahGBaPJ1-15" target="gySkxmkF_8zIahGBaPJ1-22" edge="1">
          <mxGeometry width="50" height="50" relative="1" as="geometry">
            <mxPoint x="480" y="550" as="sourcePoint" />
            <mxPoint x="530" y="500" as="targetPoint" />
          </mxGeometry>
        </mxCell>
        <mxCell id="gySkxmkF_8zIahGBaPJ1-29" value="Parts" style="shape=umlFrame;whiteSpace=wrap;html=1;pointerEvents=0;recursiveResize=0;container=1;collapsible=0;width=160;" parent="1" vertex="1">
          <mxGeometry x="30" y="590" width="340" height="180" as="geometry" />
        </mxCell>
        <mxCell id="gySkxmkF_8zIahGBaPJ1-30" value="+ ItemNumber()" style="text;html=1;align=left;verticalAlign=middle;resizable=0;points=[];autosize=1;strokeColor=none;fillColor=none;" parent="gySkxmkF_8zIahGBaPJ1-29" vertex="1">
          <mxGeometry x="20" y="50" width="110" height="30" as="geometry" />
        </mxCell>
        <mxCell id="gySkxmkF_8zIahGBaPJ1-31" value="+ Order()" style="text;html=1;align=left;verticalAlign=middle;resizable=0;points=[];autosize=1;strokeColor=none;fillColor=none;" parent="gySkxmkF_8zIahGBaPJ1-29" vertex="1">
          <mxGeometry x="20" y="70" width="70" height="30" as="geometry" />
        </mxCell>
        <mxCell id="gySkxmkF_8zIahGBaPJ1-32" value="+ Ship()" style="text;html=1;align=left;verticalAlign=middle;resizable=0;points=[];autosize=1;strokeColor=none;fillColor=none;" parent="gySkxmkF_8zIahGBaPJ1-29" vertex="1">
          <mxGeometry x="20" y="90" width="70" height="30" as="geometry" />
        </mxCell>
        <mxCell id="gySkxmkF_8zIahGBaPJ1-33" value="+ Send()" style="text;html=1;align=left;verticalAlign=middle;resizable=0;points=[];autosize=1;strokeColor=none;fillColor=none;" parent="gySkxmkF_8zIahGBaPJ1-29" vertex="1">
          <mxGeometry x="20" y="110" width="70" height="30" as="geometry" />
        </mxCell>
        <mxCell id="gySkxmkF_8zIahGBaPJ1-34" value="" style="endArrow=open;dashed=1;html=1;rounded=0;endFill=0;exitX=0.492;exitY=1.024;exitDx=0;exitDy=0;exitPerimeter=0;entryX=0.489;entryY=-0.022;entryDx=0;entryDy=0;entryPerimeter=0;" parent="1" source="gySkxmkF_8zIahGBaPJ1-15" target="gySkxmkF_8zIahGBaPJ1-29" edge="1">
          <mxGeometry width="50" height="50" relative="1" as="geometry">
            <mxPoint x="400" y="550" as="sourcePoint" />
            <mxPoint x="450" y="500" as="targetPoint" />
          </mxGeometry>
        </mxCell>
        <mxCell id="gySkxmkF_8zIahGBaPJ1-35" value="" style="endArrow=open;dashed=1;html=1;rounded=0;endFill=0;exitX=0.533;exitY=1.015;exitDx=0;exitDy=0;exitPerimeter=0;entryX=0.531;entryY=0.001;entryDx=0;entryDy=0;entryPerimeter=0;" parent="1" source="gySkxmkF_8zIahGBaPJ1-8" target="gySkxmkF_8zIahGBaPJ1-22" edge="1">
          <mxGeometry width="50" height="50" relative="1" as="geometry">
            <mxPoint x="480" y="550" as="sourcePoint" />
            <mxPoint x="530" y="500" as="targetPoint" />
          </mxGeometry>
        </mxCell>
        <mxCell id="gySkxmkF_8zIahGBaPJ1-36" value="Parter" style="shape=umlFrame;whiteSpace=wrap;html=1;pointerEvents=0;recursiveResize=0;container=1;collapsible=0;width=160;" parent="1" vertex="1">
          <mxGeometry x="-430" y="330" width="340" height="180" as="geometry" />
        </mxCell>
        <mxCell id="gySkxmkF_8zIahGBaPJ1-37" value="+ Assign()" style="text;html=1;align=left;verticalAlign=middle;resizable=0;points=[];autosize=1;strokeColor=none;fillColor=none;" parent="gySkxmkF_8zIahGBaPJ1-36" vertex="1">
          <mxGeometry x="20" y="50" width="80" height="30" as="geometry" />
        </mxCell>
        <mxCell id="gySkxmkF_8zIahGBaPJ1-38" value="+ Start()" style="text;html=1;align=left;verticalAlign=middle;resizable=0;points=[];autosize=1;strokeColor=none;fillColor=none;" parent="gySkxmkF_8zIahGBaPJ1-36" vertex="1">
          <mxGeometry x="20" y="70" width="70" height="30" as="geometry" />
        </mxCell>
        <mxCell id="gySkxmkF_8zIahGBaPJ1-39" value="+ Finish()" style="text;html=1;align=left;verticalAlign=middle;resizable=0;points=[];autosize=1;strokeColor=none;fillColor=none;" parent="gySkxmkF_8zIahGBaPJ1-36" vertex="1">
          <mxGeometry x="20" y="90" width="70" height="30" as="geometry" />
        </mxCell>
        <mxCell id="gySkxmkF_8zIahGBaPJ1-40" value="+ Parts()" style="text;html=1;align=left;verticalAlign=middle;resizable=0;points=[];autosize=1;strokeColor=none;fillColor=none;" parent="gySkxmkF_8zIahGBaPJ1-36" vertex="1">
          <mxGeometry x="20" y="110" width="70" height="30" as="geometry" />
        </mxCell>
        <mxCell id="gySkxmkF_8zIahGBaPJ1-41" value="" style="endArrow=open;dashed=1;html=1;rounded=0;endFill=0;exitX=-0.008;exitY=0.529;exitDx=0;exitDy=0;exitPerimeter=0;entryX=1.006;entryY=0.529;entryDx=0;entryDy=0;entryPerimeter=0;" parent="1" source="gySkxmkF_8zIahGBaPJ1-15" target="gySkxmkF_8zIahGBaPJ1-36" edge="1">
          <mxGeometry width="50" height="50" relative="1" as="geometry">
            <mxPoint x="-140" y="550" as="sourcePoint" />
            <mxPoint x="-70" y="450" as="targetPoint" />
          </mxGeometry>
        </mxCell>
        <mxCell id="gySkxmkF_8zIahGBaPJ1-42" value="" style="endArrow=none;dashed=1;html=1;rounded=0;exitX=1.001;exitY=0.556;exitDx=0;exitDy=0;exitPerimeter=0;" parent="1" source="gySkxmkF_8zIahGBaPJ1-29" edge="1">
          <mxGeometry width="50" height="50" relative="1" as="geometry">
            <mxPoint x="530" y="470" as="sourcePoint" />
            <mxPoint x="670" y="690" as="targetPoint" />
          </mxGeometry>
        </mxCell>
        <mxCell id="gySkxmkF_8zIahGBaPJ1-43" value="" style="endArrow=open;dashed=1;html=1;rounded=0;entryX=0.526;entryY=1.019;entryDx=0;entryDy=0;entryPerimeter=0;endFill=0;" parent="1" target="gySkxmkF_8zIahGBaPJ1-22" edge="1">
          <mxGeometry width="50" height="50" relative="1" as="geometry">
            <mxPoint x="670" y="690" as="sourcePoint" />
            <mxPoint x="580" y="420" as="targetPoint" />
          </mxGeometry>
        </mxCell>
      </root>
    </mxGraphModel>
  </diagram>
</mxfile>
